<?xml version="1.0" encoding="UTF-8"?>
<svg xmlns="http://www.w3.org/2000/svg" viewBox="0 0 1600 920" width="1600" height="920" font-family="-apple-system, BlinkMacSystemFont, 'Segoe UI', Roboto, sans-serif">
<rect width="1600" height="920" fill="#ffffff"></rect>

<defs>
  <marker id="ah-gray" viewBox="0 0 10 10" refX="9" refY="5" markerWidth="7" markerHeight="7" orient="auto-start-reverse">
    <path d="M0,0 L10,5 L0,10 z" fill="#3d4470"></path>
  </marker>
  <marker id="ah-red" viewBox="0 0 10 10" refX="9" refY="5" markerWidth="7" markerHeight="7" orient="auto-start-reverse">
    <path d="M0,0 L10,5 L0,10 z" fill="#dc3438"></path>
  </marker>
  <marker id="ah-purple" viewBox="0 0 10 10" refX="9" refY="5" markerWidth="8" markerHeight="8" orient="auto-start-reverse">
    <path d="M0,0 L10,5 L0,10 z" fill="#7c3aed"></path>
  </marker>
</defs>

<text x="60" y="60" font-size="32" font-weight="700" fill="#08104e">From Source Docs To Tailored Applications</text>
<text x="60" y="92" font-size="16" fill="#3d4470">Build once, tailor easily, learn from each application.</text>
<text x="1240" y="50" font-size="11" font-weight="700" fill="#6b7199" letter-spacing="2">LEGEND</text>
<rect x="1240" y="68" width="14" height="14" rx="3" fill="#08104e" stroke="#08104e" stroke-width="1.5"></rect>
<text x="1262" y="79" font-size="12" fill="#3d4470" font-weight="500">source docs</text>
<rect x="1410" y="68" width="14" height="14" rx="3" fill="#fd484c" stroke="#fd484c" stroke-width="1.5"></rect>
<text x="1432" y="79" font-size="12" fill="#3d4470" font-weight="500">skill actions</text>
<rect x="1240" y="94" width="14" height="14" rx="3" fill="#ffedd5" stroke="#c2410c" stroke-width="1.5"></rect>
<text x="1262" y="105" font-size="12" fill="#3d4470" font-weight="500">tailored outputs</text>
<rect x="1410" y="94" width="14" height="14" rx="3" fill="#ede9fe" stroke="#7c3aed" stroke-width="1.5"></rect>
<text x="1432" y="105" font-size="12" fill="#3d4470" font-weight="500">feedback loop</text>
<line x1="240" y1="320" x2="278" y2="320" stroke="#3d4470" stroke-width="2" marker-end="url(#ah-gray)"></line>
<line x1="450" y1="320" x2="488" y2="320" stroke="#3d4470" stroke-width="2" marker-end="url(#ah-gray)"></line>
<line x1="770" y1="320" x2="808" y2="320" stroke="#3d4470" stroke-width="2" marker-end="url(#ah-gray)"></line>
<line x1="1170" y1="320" x2="1208" y2="320" stroke="#3d4470" stroke-width="2" marker-end="url(#ah-gray)"></line>
<rect x="40" y="200" width="200" height="240" rx="14" ry="14" fill="#ffffff" stroke="#08104e" stroke-width="2.5"></rect>
<text x="140" y="236" font-size="20" fill="#08104e" font-weight="700" text-anchor="middle" dominant-baseline="middle">Jobseeker</text>
<line x1="64" y1="262" x2="216" y2="262" stroke="#e5e6ef" stroke-width="1.5"></line>
<text x="140" y="292" font-size="14" fill="#3d4470" font-weight="500" text-anchor="middle" dominant-baseline="middle">existing resume</text>
<text x="140" y="320" font-size="14" fill="#3d4470" font-weight="500" text-anchor="middle" dominant-baseline="middle">LinkedIn</text>
<text x="140" y="348" font-size="14" fill="#3d4470" font-weight="500" text-anchor="middle" dominant-baseline="middle">notes</text>
<text x="140" y="376" font-size="14" fill="#3d4470" font-weight="500" text-anchor="middle" dominant-baseline="middle">job goals</text>
<text x="140" y="404" font-size="14" fill="#3d4470" font-weight="500" text-anchor="middle" dominant-baseline="middle">work history</text>
<rect x="280" y="240" width="170" height="160" rx="12" ry="12" fill="#fd484c" stroke="#dc3438" stroke-width="2"></rect>
<text x="365" y="276" font-size="18" fill="#ffffff" font-weight="700" text-anchor="middle" dominant-baseline="middle">get-started</text>
<line x1="310" y1="298" x2="420" y2="298" stroke="rgba(255,255,255,0.4)" stroke-width="1"></line>
<text x="365" y="320" font-size="13" fill="#fff3f4" font-weight="500" text-anchor="middle" dominant-baseline="middle">setup +</text>
<text x="365" y="342" font-size="13" fill="#fff3f4" font-weight="500" text-anchor="middle" dominant-baseline="middle">structured</text>
<text x="365" y="364" font-size="13" fill="#fff3f4" font-weight="500" text-anchor="middle" dominant-baseline="middle">interview</text>
<rect x="490" y="170" width="280" height="360" rx="14" ry="14" fill="#f7fafb" stroke="#b3b8cc" stroke-width="1.5" stroke-dasharray="6 5"></rect>
<text x="508" y="198" font-size="15" font-weight="700" fill="#08104e">my-documents/</text>
<text x="508" y="218" font-size="11" fill="#6b7199" font-style="italic">local files you control</text>
<rect x="508" y="240" width="244" height="42" rx="8" ry="8" fill="#08104e" stroke="#08104e" stroke-width="0"></rect>
<text x="630" y="261" font-size="14" fill="#ffffff" font-weight="600" text-anchor="middle" dominant-baseline="middle">resume.md  /  cv.md</text>
<rect x="508" y="294" width="244" height="42" rx="8" ry="8" fill="#08104e" stroke="#08104e" stroke-width="0"></rect>
<text x="630" y="315" font-size="14" fill="#ffffff" font-weight="600" text-anchor="middle" dominant-baseline="middle">story-bank.md</text>
<rect x="508" y="348" width="244" height="42" rx="8" ry="8" fill="#08104e" stroke="#08104e" stroke-width="0"></rect>
<text x="630" y="369" font-size="14" fill="#ffffff" font-weight="600" text-anchor="middle" dominant-baseline="middle">proof-assets/</text>
<rect x="508" y="402" width="244" height="42" rx="8" ry="8" fill="#08104e" stroke="#08104e" stroke-width="0"></rect>
<text x="630" y="423" font-size="14" fill="#ffffff" font-weight="600" text-anchor="middle" dominant-baseline="middle">applications/</text>
<rect x="508" y="456" width="244" height="42" rx="8" ry="8" fill="#08104e" stroke="#08104e" stroke-width="0"></rect>
<text x="630" y="477" font-size="14" fill="#ffffff" font-weight="600" text-anchor="middle" dominant-baseline="middle">coverletter.md</text>
<rect x="810" y="170" width="360" height="360" rx="14" ry="14" fill="#ffffff" stroke="#b3b8cc" stroke-width="1.5" stroke-dasharray="6 5"></rect>
<text x="828" y="198" font-size="15" font-weight="700" fill="#08104e">Tailoring</text>
<text x="828" y="218" font-size="11" fill="#6b7199" font-style="italic">one truthful pass per role</text>
<text x="828" y="248" font-size="11" fill="#6b7199" font-weight="700" letter-spacing="1.5">JOB POSTINGS</text>
<rect x="828" y="258" width="100" height="32" rx="16" ry="16" fill="#ffffff" stroke="#08104e" stroke-width="1.5"></rect>
<text x="878" y="274" font-size="12" fill="#08104e" font-weight="600" text-anchor="middle" dominant-baseline="middle">posting A</text>
<rect x="938" y="258" width="100" height="32" rx="16" ry="16" fill="#ffffff" stroke="#08104e" stroke-width="1.5"></rect>
<text x="988" y="274" font-size="12" fill="#08104e" font-weight="600" text-anchor="middle" dominant-baseline="middle">posting B</text>
<rect x="1048" y="258" width="100" height="32" rx="16" ry="16" fill="#ffffff" stroke="#08104e" stroke-width="1.5"></rect>
<text x="1098" y="274" font-size="12" fill="#08104e" font-weight="600" text-anchor="middle" dominant-baseline="middle">posting C</text>
<line x1="990" y1="298" x2="990" y2="328" stroke="#3d4470" stroke-width="2" marker-end="url(#ah-gray)"></line>
<rect x="870" y="350" width="240" height="38" rx="8" ry="8" fill="#fd484c" stroke="#dc3438" stroke-width="1.5"></rect>
<text x="990" y="369" font-size="14" fill="#ffffff" font-weight="700" text-anchor="middle" dominant-baseline="middle">company-research</text>
<line x1="990" y1="388" x2="990" y2="397" stroke="#dc3438" stroke-width="2" marker-end="url(#ah-red)"></line>
<rect x="870" y="398" width="240" height="38" rx="8" ry="8" fill="#fd484c" stroke="#dc3438" stroke-width="1.5"></rect>
<text x="990" y="417" font-size="14" fill="#ffffff" font-weight="700" text-anchor="middle" dominant-baseline="middle">resume-tailor</text>
<line x1="990" y1="436" x2="990" y2="445" stroke="#dc3438" stroke-width="2" marker-end="url(#ah-red)"></line>
<rect x="870" y="446" width="240" height="38" rx="8" ry="8" fill="#fd484c" stroke="#dc3438" stroke-width="1.5"></rect>
<text x="990" y="465" font-size="14" fill="#ffffff" font-weight="700" text-anchor="middle" dominant-baseline="middle">claim-check</text>
<text x="990" y="512" font-size="11" fill="#6b7199" text-anchor="middle" font-style="italic">claim-check verifies before any draft leaves your machine</text>
<text x="1228" y="182" font-size="11" fill="#c2410c" font-weight="700" letter-spacing="1.5">TAILORED OUTPUTS</text>
<rect x="1210" y="200" width="350" height="80" rx="10" ry="10" fill="#ffedd5" stroke="#c2410c" stroke-width="1.5"></rect>
<text x="1228" y="230" font-size="14" font-weight="700" fill="#7a3a0e">applications/acme-pm/</text>
<text x="1228" y="256" font-size="13" fill="#9a4a14">• resume.md</text>
<rect x="1210" y="296" width="350" height="80" rx="10" ry="10" fill="#ffedd5" stroke="#c2410c" stroke-width="1.5"></rect>
<text x="1228" y="326" font-size="14" font-weight="700" fill="#7a3a0e">applications/orbit-eng/</text>
<text x="1228" y="352" font-size="13" fill="#9a4a14">• resume.md</text>
<rect x="1210" y="392" width="350" height="80" rx="10" ry="10" fill="#ffedd5" stroke="#c2410c" stroke-width="1.5"></rect>
<text x="1228" y="422" font-size="14" font-weight="700" fill="#7a3a0e">applications/lumen-design/</text>
<text x="1228" y="448" font-size="13" fill="#9a4a14">• resume.md   • coverletter.md</text>

<rect x="842" y="620" width="180" height="70" rx="12" ry="12" fill="#fd484c" stroke="#dc3438" stroke-width="2"></rect>
<text x="932" y="655" font-size="17" fill="#fff" font-weight="700" text-anchor="middle" dominant-baseline="middle">interview prep</text>
<line x1="1022" y1="655" x2="1044" y2="655" stroke="#3d4470" stroke-width="2" marker-end="url(#ah-gray)"></line>
<rect x="1046" y="620" width="200" height="70" rx="12" ry="12" fill="#ffffff" stroke="#08104e" stroke-width="2"></rect>
<text x="1146" y="646" font-size="16" fill="#08104e" font-weight="700" text-anchor="middle" dominant-baseline="middle">interview notes</text>
<text x="1146" y="668" font-size="14" fill="#08104e" font-weight="500" text-anchor="middle" dominant-baseline="middle">&amp; follow-ups</text>
<line x1="1246" y1="655" x2="1268" y2="655" stroke="#3d4470" stroke-width="2" marker-end="url(#ah-gray)"></line>
<rect x="1270" y="620" width="180" height="70" rx="12" ry="12" fill="#ffffff" stroke="#08104e" stroke-width="2"></rect>
<text x="1360" y="646" font-size="16" fill="#08104e" font-weight="700" text-anchor="middle" dominant-baseline="middle">outcomes</text>
<text x="1360" y="668" font-size="14" fill="#08104e" font-weight="500" text-anchor="middle" dominant-baseline="middle">&amp; learnings</text>
<path d="M 1385 488 C 1385 540, 932 570, 932 618" fill="none" stroke="#3d4470" stroke-width="2" stroke-linecap="round" stroke-linejoin="round" marker-end="url(#ah-gray)"></path>
<path d="M 1450 690 C 1500 800, 1480 870, 700 870 C 350 870, 250 820, 250 720 C 250 620, 380 580, 490 480" fill="none" stroke="#7c3aed" stroke-width="2.5" stroke-linecap="round" marker-end="url(#ah-purple)" stroke-dasharray="8 5"></path>
<rect x="640" y="842" width="380" height="56" rx="12" ry="12" fill="#ede9fe" stroke="#7c3aed" stroke-width="2"></rect>
<text x="830" y="862" font-size="15" fill="#5b21b6" font-weight="700" text-anchor="middle" dominant-baseline="middle">Feedback loop</text>
<text x="830" y="884" font-size="12" fill="#5b21b6" font-weight="500" text-anchor="middle" dominant-baseline="middle">tracker · story bank · resume · proof assets</text>

</svg>
